<svg xmlns="http://www.w3.org/2000/svg" xmlns:xlink="http://www.w3.org/1999/xlink" width="500" zoomAndPan="magnify" viewBox="0 0 375 374.999991" height="500" preserveAspectRatio="xMidYMid meet" version="1.0"><defs><g/><clipPath id="afc78db948"><path d="M 98.3125 71.164062 L 276.8125 71.164062 L 276.8125 255.664062 L 98.3125 255.664062 Z M 98.3125 71.164062 " clip-rule="nonzero"/></clipPath><clipPath id="366da5ff29"><path d="M 132 139 L 166.972656 139 L 166.972656 155 L 132 155 Z M 132 139 " clip-rule="nonzero"/></clipPath><clipPath id="4dcb3b1800"><path d="M 149 147 L 166.972656 147 L 166.972656 175 L 149 175 Z M 149 147 " clip-rule="nonzero"/></clipPath><clipPath id="7e276ef96d"><path d="M 131.722656 138.644531 L 166.972656 138.644531 L 166.972656 175.394531 L 131.722656 175.394531 Z M 131.722656 138.644531 " clip-rule="nonzero"/></clipPath><clipPath id="3d17e242a3"><path d="M 132 181 L 166.972656 181 L 166.972656 197 L 132 197 Z M 132 181 " clip-rule="nonzero"/></clipPath><clipPath id="17689cccc5"><path d="M 149 188 L 166.972656 188 L 166.972656 217 L 149 217 Z M 149 188 " clip-rule="nonzero"/></clipPath><clipPath id="d9f061924f"><path d="M 131.722656 180.492188 L 166.972656 180.492188 L 166.972656 217.242188 L 131.722656 217.242188 Z M 131.722656 180.492188 " clip-rule="nonzero"/></clipPath><clipPath id="30f4ff1dfe"><path d="M 213.921875 157.714844 L 219 157.714844 L 219 207 L 213.921875 207 Z M 213.921875 157.714844 " clip-rule="nonzero"/></clipPath><clipPath id="4f032c3000"><path d="M 213.921875 157.714844 L 249 157.714844 L 249 171 L 213.921875 171 Z M 213.921875 157.714844 " clip-rule="nonzero"/></clipPath><clipPath id="fe9cf5ec23"><path d="M 218 157.714844 L 249 157.714844 L 249 207 L 218 207 Z M 218 157.714844 " clip-rule="nonzero"/></clipPath><clipPath id="a6fef788f0"><path d="M 213.921875 157.714844 L 249.804688 157.714844 L 249.804688 207.214844 L 213.921875 207.214844 Z M 213.921875 157.714844 " clip-rule="nonzero"/></clipPath></defs><path fill="#004aad" d="M 187.65625 151.96875 L 187.65625 252.84375 L 101.441406 214.199219 L 101.441406 113.320312 Z M 187.65625 151.96875 " fill-opacity="1" fill-rule="nonzero"/><path fill="#ffbd59" d="M 273.867188 113.121094 L 273.867188 113.320312 L 187.65625 151.96875 L 101.441406 113.320312 L 101.441406 113.121094 L 187.65625 74.472656 Z M 273.867188 113.121094 " fill-opacity="1" fill-rule="nonzero"/><path fill="#ff3131" d="M 273.867188 113.320312 L 273.867188 214.199219 L 187.65625 252.84375 L 187.65625 151.96875 Z M 273.867188 113.320312 " fill-opacity="1" fill-rule="nonzero"/><g clip-path="url(#afc78db948)"><path fill="#000000" d="M 274.925781 110.265625 L 188.714844 71.621094 C 187.902344 71.257812 187.09375 71.257812 186.285156 71.621094 L 100.070312 110.265625 C 99.535156 110.507812 99.109375 110.871094 98.789062 111.363281 C 98.472656 111.855469 98.3125 112.394531 98.3125 112.980469 L 98.3125 214.058594 C 98.3125 214.644531 98.472656 215.183594 98.789062 215.671875 C 99.109375 216.164062 99.535156 216.53125 100.070312 216.769531 L 186.285156 255.417969 C 187.09375 255.78125 187.902344 255.78125 188.714844 255.417969 L 274.925781 216.769531 C 275.460938 216.53125 275.886719 216.164062 276.207031 215.671875 C 276.523438 215.183594 276.683594 214.644531 276.683594 214.058594 L 276.683594 112.980469 C 276.683594 112.394531 276.523438 111.855469 276.207031 111.363281 C 275.886719 110.871094 275.460938 110.507812 274.925781 110.265625 Z M 184.527344 248.113281 L 104.257812 212.132812 L 104.257812 117.773438 L 184.527344 153.757812 Z M 187.5 148.574219 L 108.324219 113.082031 L 187.5 77.59375 L 266.671875 113.082031 Z M 270.738281 212.132812 L 190.472656 248.113281 L 190.472656 153.757812 L 270.738281 117.773438 Z M 270.738281 212.132812 " fill-opacity="1" fill-rule="nonzero"/></g><path fill="#000000" d="M 149.4375 154.667969 L 149.4375 174.667969 L 132.34375 167.007812 L 132.34375 147.003906 Z M 149.4375 154.667969 " fill-opacity="1" fill-rule="nonzero"/><g clip-path="url(#366da5ff29)"><path fill="#004aad" d="M 166.53125 146.964844 L 166.53125 147.003906 L 149.4375 154.667969 L 132.34375 147.003906 L 132.34375 146.964844 L 149.4375 139.300781 Z M 166.53125 146.964844 " fill-opacity="1" fill-rule="nonzero"/></g><g clip-path="url(#4dcb3b1800)"><path fill="#004aad" d="M 166.53125 147.003906 L 166.53125 167.007812 L 149.4375 174.667969 L 149.4375 154.667969 Z M 166.53125 147.003906 " fill-opacity="1" fill-rule="nonzero"/></g><g clip-path="url(#7e276ef96d)"><path fill="#004aad" d="M 166.742188 146.398438 L 149.648438 138.738281 C 149.488281 138.664062 149.324219 138.664062 149.164062 138.738281 L 132.070312 146.398438 C 131.839844 146.503906 131.722656 146.683594 131.722656 146.9375 L 131.722656 166.980469 C 131.722656 167.234375 131.839844 167.414062 132.070312 167.515625 L 149.164062 175.179688 C 149.324219 175.25 149.488281 175.25 149.648438 175.179688 L 166.742188 167.515625 C 166.972656 167.414062 167.089844 167.234375 167.089844 166.980469 L 167.089844 146.9375 C 167.089844 146.683594 166.972656 146.503906 166.742188 146.398438 Z M 148.816406 173.730469 L 132.902344 166.597656 L 132.902344 147.886719 L 148.816406 155.023438 Z M 149.40625 153.996094 L 133.707031 146.957031 L 149.40625 139.921875 L 165.105469 146.957031 Z M 165.910156 166.597656 L 149.996094 173.730469 L 149.996094 155.023438 L 165.910156 147.886719 Z M 165.910156 166.597656 " fill-opacity="1" fill-rule="nonzero"/></g><path fill="#000000" d="M 149.4375 196.515625 L 149.4375 216.515625 L 132.34375 208.855469 L 132.34375 188.851562 Z M 149.4375 196.515625 " fill-opacity="1" fill-rule="nonzero"/><g clip-path="url(#3d17e242a3)"><path fill="#004aad" d="M 166.53125 188.8125 L 166.53125 188.851562 L 149.4375 196.515625 L 132.34375 188.851562 L 132.34375 188.8125 L 149.4375 181.148438 Z M 166.53125 188.8125 " fill-opacity="1" fill-rule="nonzero"/></g><g clip-path="url(#17689cccc5)"><path fill="#004aad" d="M 166.53125 188.851562 L 166.53125 208.855469 L 149.4375 216.515625 L 149.4375 196.515625 Z M 166.53125 188.851562 " fill-opacity="1" fill-rule="nonzero"/></g><g clip-path="url(#d9f061924f)"><path fill="#004aad" d="M 166.742188 188.246094 L 149.648438 180.582031 C 149.488281 180.511719 149.324219 180.511719 149.164062 180.582031 L 132.070312 188.246094 C 131.839844 188.351562 131.722656 188.53125 131.722656 188.785156 L 131.722656 208.824219 C 131.722656 209.078125 131.839844 209.257812 132.070312 209.363281 L 149.164062 217.027344 C 149.324219 217.097656 149.488281 217.097656 149.648438 217.027344 L 166.742188 209.363281 C 166.972656 209.257812 167.089844 209.078125 167.089844 208.824219 L 167.089844 188.785156 C 167.089844 188.53125 166.972656 188.351562 166.742188 188.246094 Z M 148.816406 215.578125 L 132.902344 208.445312 L 132.902344 189.734375 L 148.816406 196.871094 Z M 149.40625 195.839844 L 133.707031 188.804688 L 149.40625 181.765625 L 165.105469 188.804688 Z M 165.910156 208.445312 L 149.996094 215.578125 L 149.996094 196.871094 L 165.910156 189.734375 Z M 165.910156 208.445312 " fill-opacity="1" fill-rule="nonzero"/></g><g clip-path="url(#30f4ff1dfe)"><path fill="#ff3131" d="M 218.285156 170.925781 L 218.285156 206.46875 L 187.90625 192.851562 L 187.90625 157.308594 Z M 218.285156 170.925781 " fill-opacity="1" fill-rule="nonzero"/></g><g clip-path="url(#4f032c3000)"><path fill="#ff3131" d="M 248.660156 157.238281 L 248.660156 157.308594 L 218.285156 170.925781 L 187.90625 157.308594 L 187.90625 157.238281 L 218.285156 143.621094 Z M 248.660156 157.238281 " fill-opacity="1" fill-rule="nonzero"/></g><g clip-path="url(#fe9cf5ec23)"><path fill="#000000" d="M 248.660156 157.308594 L 248.660156 192.851562 L 218.285156 206.46875 L 218.285156 170.925781 Z M 248.660156 157.308594 " fill-opacity="1" fill-rule="nonzero"/></g><g clip-path="url(#a6fef788f0)"><path fill="#ff3131" d="M 249.03125 156.230469 L 218.65625 142.613281 C 218.371094 142.488281 218.085938 142.488281 217.800781 142.613281 L 187.425781 156.230469 C 187.234375 156.316406 187.085938 156.445312 186.972656 156.617188 C 186.859375 156.792969 186.804688 156.980469 186.804688 157.1875 L 186.804688 192.800781 C 186.804688 193.007812 186.859375 193.199219 186.972656 193.371094 C 187.085938 193.542969 187.234375 193.671875 187.425781 193.757812 L 217.800781 207.375 C 218.085938 207.503906 218.371094 207.503906 218.65625 207.375 L 249.03125 193.757812 C 249.222656 193.671875 249.371094 193.542969 249.484375 193.371094 C 249.597656 193.199219 249.652344 193.007812 249.652344 192.800781 L 249.652344 157.1875 C 249.652344 156.980469 249.597656 156.792969 249.484375 156.617188 C 249.371094 156.445312 249.222656 156.316406 249.03125 156.230469 Z M 217.179688 204.800781 L 188.898438 192.121094 L 188.898438 158.875 L 217.179688 171.554688 Z M 218.230469 169.726562 L 190.332031 157.222656 L 218.230469 144.71875 L 246.125 157.222656 Z M 247.558594 192.121094 L 219.277344 204.800781 L 219.277344 171.554688 L 247.558594 158.875 Z M 247.558594 192.121094 " fill-opacity="1" fill-rule="nonzero"/></g><path stroke-linecap="round" transform="matrix(0.685159, -0.305052, 0.305052, 0.685159, 122.920588, 121.173105)" fill="none" stroke-linejoin="miter" d="M 4.999013 5.000409 L 89.600114 4.999212 " stroke="#000000" stroke-width="10" stroke-opacity="1" stroke-miterlimit="4"/><path stroke-linecap="round" transform="matrix(0.685159, -0.305052, 0.305052, 0.685159, 179.51286, 124.580164)" fill="none" stroke-linejoin="miter" d="M 5.001252 5.000225 L 89.597595 4.99691 " stroke="#000000" stroke-width="10" stroke-opacity="1" stroke-miterlimit="4"/><g fill="#000000" fill-opacity="1"><g transform="translate(108.724056, 294.343025)"><g><path d="M 9.109375 0 L -0.796875 -23.640625 L 5.265625 -23.640625 L 11.234375 -8.109375 L 17.1875 -23.640625 L 23.265625 -23.640625 L 13.359375 0 Z M 9.109375 0 "/></g></g></g><g fill="#000000" fill-opacity="1"><g transform="translate(131.188909, 294.343025)"><g><path d="M 15.25 -23.640625 L 15.25 -18.90625 L 7.109375 -18.90625 L 7.109375 -14.21875 L 14.90625 -14.21875 L 14.90625 -9.484375 L 7.109375 -9.484375 L 7.109375 -4.734375 L 15.25 -4.734375 L 15.25 0 L 1.71875 0 L 1.71875 -23.640625 Z M 15.25 -23.640625 "/></g></g></g><g fill="#000000" fill-opacity="1"><g transform="translate(147.808316, 294.343025)"><g><path d="M 7.109375 -14.671875 L 7.109375 0 L 1.71875 0 L 1.71875 -23.640625 L 7.109375 -23.640625 L 16.5 -8.96875 L 16.5625 -8.96875 L 16.5625 -23.640625 L 21.953125 -23.640625 L 21.953125 0 L 16.5625 0 L 7.15625 -14.671875 Z M 7.109375 -14.671875 "/></g></g></g><g fill="#000000" fill-opacity="1"><g transform="translate(171.476643, 294.343025)"><g><path d="M 0.234375 -18.90625 L 0.234375 -23.640625 L 16.84375 -23.640625 L 16.84375 -18.90625 L 11.234375 -18.90625 L 11.234375 0 L 5.84375 0 L 5.84375 -18.90625 Z M 0.234375 -18.90625 "/></g></g></g><g fill="#000000" fill-opacity="1"><g transform="translate(188.554511, 294.343025)"><g><path d="M 19.890625 -23.640625 L 19.890625 -8.390625 C 19.890625 -5.492188 19.101562 -3.296875 17.53125 -1.796875 C 15.96875 -0.304688 13.675781 0.4375 10.65625 0.4375 C 7.632812 0.4375 5.34375 -0.304688 3.78125 -1.796875 C 2.21875 -3.296875 1.4375 -5.492188 1.4375 -8.390625 L 1.4375 -23.640625 L 6.8125 -23.640625 L 6.8125 -9.96875 C 6.8125 -8.0625 7.113281 -6.734375 7.71875 -5.984375 C 8.320312 -5.242188 9.300781 -4.875 10.65625 -4.875 C 12.007812 -4.875 12.988281 -5.242188 13.59375 -5.984375 C 14.195312 -6.734375 14.5 -8.0625 14.5 -9.96875 L 14.5 -23.640625 Z M 19.890625 -23.640625 "/></g></g></g><g fill="#000000" fill-opacity="1"><g transform="translate(209.873193, 294.343025)"><g><path d="M 1.71875 -23.640625 L 10.171875 -23.640625 C 12.441406 -23.640625 14.289062 -23.03125 15.71875 -21.8125 C 17.15625 -20.601562 17.875 -18.875 17.875 -16.625 C 17.875 -14.882812 17.441406 -13.425781 16.578125 -12.25 C 15.710938 -11.070312 14.53125 -10.242188 13.03125 -9.765625 L 21.171875 0 L 14.328125 0 L 7.109375 -9.34375 L 7.109375 0 L 1.71875 0 Z M 7.109375 -13.15625 L 7.734375 -13.15625 C 8.234375 -13.15625 8.65625 -13.160156 9 -13.171875 C 9.34375 -13.191406 9.734375 -13.257812 10.171875 -13.375 C 10.609375 -13.488281 10.960938 -13.648438 11.234375 -13.859375 C 11.503906 -14.078125 11.734375 -14.382812 11.921875 -14.78125 C 12.109375 -15.1875 12.203125 -15.675781 12.203125 -16.25 C 12.203125 -16.820312 12.109375 -17.304688 11.921875 -17.703125 C 11.734375 -18.109375 11.503906 -18.414062 11.234375 -18.625 C 10.960938 -18.832031 10.609375 -18.992188 10.171875 -19.109375 C 9.734375 -19.222656 9.34375 -19.289062 9 -19.3125 C 8.65625 -19.332031 8.234375 -19.34375 7.734375 -19.34375 L 7.109375 -19.34375 Z M 7.109375 -13.15625 "/></g></g></g><g fill="#000000" fill-opacity="1"><g transform="translate(230.389562, 294.343025)"><g><path d="M 15.25 -23.640625 L 15.25 -18.90625 L 7.109375 -18.90625 L 7.109375 -14.21875 L 14.90625 -14.21875 L 14.90625 -9.484375 L 7.109375 -9.484375 L 7.109375 -4.734375 L 15.25 -4.734375 L 15.25 0 L 1.71875 0 L 1.71875 -23.640625 Z M 15.25 -23.640625 "/></g></g></g><g fill="#000000" fill-opacity="1"><g transform="translate(247.008977, 294.343025)"><g><path d="M 10.4375 -24.078125 C 11.707031 -24.078125 12.953125 -23.890625 14.171875 -23.515625 C 15.398438 -23.140625 16.3125 -22.769531 16.90625 -22.40625 L 17.765625 -21.84375 L 15.59375 -17.53125 C 15.414062 -17.644531 15.175781 -17.789062 14.875 -17.96875 C 14.570312 -18.15625 14 -18.398438 13.15625 -18.703125 C 12.3125 -19.015625 11.523438 -19.171875 10.796875 -19.171875 C 9.898438 -19.171875 9.207031 -18.976562 8.71875 -18.59375 C 8.238281 -18.21875 8 -17.703125 8 -17.046875 C 8 -16.722656 8.113281 -16.421875 8.34375 -16.140625 C 8.570312 -15.867188 8.960938 -15.570312 9.515625 -15.25 C 10.066406 -14.9375 10.550781 -14.6875 10.96875 -14.5 C 11.394531 -14.3125 12.046875 -14.023438 12.921875 -13.640625 C 14.453125 -12.992188 15.753906 -12.109375 16.828125 -10.984375 C 17.910156 -9.867188 18.453125 -8.601562 18.453125 -7.1875 C 18.453125 -5.832031 18.207031 -4.648438 17.71875 -3.640625 C 17.238281 -2.628906 16.570312 -1.835938 15.71875 -1.265625 C 14.863281 -0.691406 13.921875 -0.265625 12.890625 0.015625 C 11.859375 0.296875 10.742188 0.4375 9.546875 0.4375 C 8.515625 0.4375 7.5 0.328125 6.5 0.109375 C 5.507812 -0.0976562 4.679688 -0.359375 4.015625 -0.671875 C 3.347656 -0.984375 2.742188 -1.289062 2.203125 -1.59375 C 1.671875 -1.90625 1.28125 -2.164062 1.03125 -2.375 L 0.65625 -2.6875 L 3.359375 -7.21875 C 3.585938 -7.03125 3.898438 -6.785156 4.296875 -6.484375 C 4.703125 -6.191406 5.414062 -5.796875 6.4375 -5.296875 C 7.457031 -4.804688 8.359375 -4.5625 9.140625 -4.5625 C 11.410156 -4.5625 12.546875 -5.332031 12.546875 -6.875 C 12.546875 -7.195312 12.460938 -7.5 12.296875 -7.78125 C 12.140625 -8.0625 11.851562 -8.335938 11.4375 -8.609375 C 11.03125 -8.890625 10.671875 -9.109375 10.359375 -9.265625 C 10.046875 -9.429688 9.53125 -9.679688 8.8125 -10.015625 C 8.09375 -10.347656 7.5625 -10.601562 7.21875 -10.78125 C 5.789062 -11.476562 4.679688 -12.359375 3.890625 -13.421875 C 3.109375 -14.484375 2.71875 -15.625 2.71875 -16.84375 C 2.71875 -18.96875 3.5 -20.703125 5.0625 -22.046875 C 6.632812 -23.398438 8.425781 -24.078125 10.4375 -24.078125 Z M 10.4375 -24.078125 "/></g></g></g></svg>